<?xml version="1.0" standalone="no" ?>
<!DOCTYPE svg PUBLIC "-//W3C//DTD SVG 1.0//EN"
	"http://www.w3.org/TR/2001/PR-SVG-20010719/DTD/svg10.dtd">
<svg width="400" height="130">
    <style type="text/css">
    path,rect {
    	stroke: black;
    	stroke-width: 2px;
    }
    .dashed {
        stroke-width: 1px;
	stroke: green;
    }
    .joiner {
        stroke-width: 1px;
	stroke-dasharray: 2,2;
	stroke: grey;
    }
    </style>

    <text x="10" y="10">Compressed stream:</text>
    <rect x="10" y="30" height="20" width="60" style="fill: cyan;" />
    <rect x="120" y="30" height="20" width="10" class="dashed" style="fill: none;"/>
    <rect x="130" y="30" height="20" width="14" class="dashed" style="fill: none;"/>
    <rect x="144" y="30" height="20" width="6" class="dashed" style="fill: none;"/>
    <rect x="150" y="30" height="20" width="18" class="dashed" style="fill: none;"/>
    <rect x="168" y="30" height="20" width="14" class="dashed" style="fill: none;"/>
    <rect x="182" y="30" height="20" width="10" class="dashed" style="fill: none;"/>
    <rect x="70" y="30" height="20" width="200" style="fill: none;" />
	    <text x="195" y="40">...</text>
    
    <rect x="40" y="100" height="20" width="30" class="dashed" style="fill: none;"/> <text x="42" y="113">he_</text>
    <rect x="70" y="100" height="20" width="10" class="dashed" style="fill: none;"/> <text x="72" y="113">l</text>
    <rect x="80" y="100" height="20" width="10" class="dashed" style="fill: none;"/> <text x="82" y="113">a</text>
    <rect x="90" y="100" height="20" width="10" class="dashed" style="fill: none;"/> <text x="92" y="113">z</text>
    <rect x="100" y="100" height="20" width="10" class="dashed" style="fill: none;"/> <text x="102" y="113">y</text>
    <rect x="110" y="100" height="20" width="10" class="dashed" style="fill: none;"/> <text x="112" y="113">_</text>
    <line x1="20" y1="100" y2="100" x2="300" style="stroke: black; "/>
    <line x1="20" y1="120" y2="120" x2="300" style="stroke: black; "/>

    <line y1="55" y2="95" x1="120" x2="40" class="joiner" />
    <line y1="55" y2="95" x1="130" x2="70" class="joiner" />
    <line y1="55" y2="95" x1="144" x2="80" class="joiner" />
    <line y1="55" y2="95" x1="150" x2="90" class="joiner" />
    <line y1="55" y2="95" x1="168" x2="100" class="joiner" />
    <line y1="55" y2="95" x1="182" x2="110" class="joiner" />
    <line y1="55" y2="95" x1="192" x2="120" class="joiner" />
</svg>
    
